# xmcd
#
# Track frame offsets:
#	150
#	16042
#	33667
#	50775
#	67780
#	86094
#	101225
#	118037
#	134413
#	151195
#
# Disc length: 2276 seconds
#
# Revision: 0
# Processed by: cddbd v1.4PL0 Copyright (c) Steve Scherf et al.
# Submitted via: dBpowerAMP V4.0
#
DISCID=8108e20a
DTITLE=Artista - Álbum
DYEAR=1900
DGENRE=
TTITLE0=Pista 01
TTITLE1=Pista 02
TTITLE2=Pista 03
TTITLE3=Pista 04
TTITLE4=Pista 05
TTITLE5=Pista 06
TTITLE6=Pista 07
TTITLE7=Pista 08
TTITLE8=Pista 09
TTITLE9=Pista 10
EXTD=
EXTT0=
EXTT1=
EXTT2=
EXTT3=
EXTT4=
EXTT5=
EXTT6=
EXTT7=
EXTT8=
EXTT9=
PLAYORDER=
